<?xml version="1.0" standalone="no"?>
<!DOCTYPE svg PUBLIC "-//W3C//DTD SVG 20010904//EN"
 "http://www.w3.org/TR/2001/REC-SVG-20010904/DTD/svg10.dtd">
<svg version="1.0" xmlns="http://www.w3.org/2000/svg"
 width="700.000000pt" height="700.000000pt" viewBox="0 0 700.000000 700.000000"
 preserveAspectRatio="xMidYMid meet">
<metadata>
Created by potrace 1.14, written by Peter Selinger 2001-2017
</metadata>
<g transform="translate(0.000000,700.000000) scale(0.100000,-0.100000)"
fill="#000000" stroke="none">
<path d="M0 3500 l0 -3500 3500 0 3500 0 0 3500 0 3500 -3500 0 -3500 0 0
-3500z m3843 2594 c224 -39 493 -163 673 -310 80 -66 139 -85 312 -100 194
-17 213 -19 337 -51 155 -40 279 -96 385 -174 25 -19 50 -34 55 -34 6 0 10 -4
11 -10 1 -5 52 -62 114 -125 62 -63 151 -162 197 -220 91 -114 199 -267 192
-274 -2 -2 -163 -90 -356 -195 l-352 -192 -138 21 c-76 12 -189 24 -252 27
l-115 6 -35 36 c-20 20 -60 58 -89 83 -49 43 -51 47 -30 54 12 3 113 6 224 5
194 -1 202 0 235 22 88 59 74 140 -63 350 -38 60 -68 110 -66 113 7 7 109 -26
159 -51 63 -32 106 -83 190 -227 110 -187 150 -228 222 -228 134 0 216 175
157 334 -99 263 -480 525 -802 552 -94 8 -152 -10 -197 -62 -38 -43 -39 -48
-44 -224 -7 -247 -31 -275 -292 -336 -60 -14 -114 -25 -120 -25 -5 0 -50 15
-100 35 l-90 34 -21 87 c-41 162 -84 229 -274 431 -61 65 -108 120 -102 122
15 5 182 -58 226 -85 23 -14 104 -88 181 -163 l141 -138 84 -26 c150 -44 132
-50 164 52 35 108 32 143 -17 245 -146 305 -483 480 -927 480 -180 0 -308 -27
-445 -96 -106 -53 -245 -158 -245 -186 0 -14 13 -22 221 -134 214 -115 315
-182 395 -262 79 -78 189 -244 172 -260 -1 -2 -54 -5 -116 -6 l-113 -4 -25 45
c-140 246 -390 370 -743 370 -229 0 -419 -42 -608 -135 -88 -44 -127 -70 -190
-129 -108 -102 -145 -171 -151 -282 -7 -139 29 -207 141 -266 33 -17 59 -22
122 -22 113 -1 188 36 301 145 85 83 114 127 114 173 l0 26 -172 2 -173 3 58
38 c150 100 253 131 407 124 82 -3 120 -10 175 -31 76 -29 187 -96 249 -149
l39 -34 -84 -40 -84 -41 -41 24 c-53 31 -110 32 -150 2 -17 -13 -68 -69 -113
-125 -284 -354 -552 -422 -857 -217 -75 51 -93 58 -144 62 -52 4 -63 1 -107
-28 -61 -42 -140 -117 -159 -152 -36 -68 8 -182 109 -282 161 -161 431 -185
702 -61 41 19 75 32 75 29 0 -2 -11 -31 -24 -64 -60 -146 -86 -293 -86 -478 0
-314 81 -582 253 -837 86 -126 284 -322 412 -407 338 -223 746 -325 1105 -274
290 41 546 138 786 297 129 86 332 283 409 397 27 39 53 72 58 72 10 0 24 -7
607 -323 223 -120 409 -222 414 -227 5 -5 -16 -45 -49 -92 -179 -257 -370
-455 -621 -644 -410 -308 -898 -498 -1434 -560 -182 -20 -577 -15 -740 11
-433 68 -806 204 -1147 419 -685 430 -1128 1105 -1228 1869 -17 135 -20 426
-5 562 15 136 47 293 87 428 19 67 35 130 35 140 0 9 3 17 8 17 5 0 7 7 4 15
-4 8 -1 15 6 15 6 0 8 5 5 10 -3 6 -2 10 3 10 4 0 15 15 24 33 28 60 114 152
184 200 72 48 149 82 270 117 l72 20 7 48 c11 81 64 224 110 297 77 124 205
235 360 313 69 34 195 78 335 117 119 33 165 60 260 150 245 233 523 381 780
414 110 14 309 12 403 -5z"/>
</g>
</svg>
