<svg xmlns="http://www.w3.org/2000/svg" width="150" height="24" fill="none"><path fill="#1B70F1" d="M.352 7.737c.058-.205.117-.41.205-.586-.118.176-.176.38-.205.586Zm7.236-5.918c.264-.03.498-.03.762-.03h.175a3.355 3.355 0 0 0-.937.03Zm6.27 2.022c.204.205.439.38.615.615a3.06 3.06 0 0 0-.616-.615Z"/><path fill="#1B70F1" d="m12.51 12.542 3.076 1.787a8.38 8.38 0 0 1-7.236 4.19c-4.6 0-8.35-3.78-8.35-8.35 0-.82.117-1.64.352-2.402.058-.205.117-.41.205-.586.205-.352.498-.674.937-.85.205-.088.41-.146.615-.205.176-1.494 1.172-2.168 2.49-2.49.206-.059.44-.176.587-.352.732-.79 1.552-1.289 2.402-1.435.264-.03.498-.03.762-.03h.175c.791.088 1.612.44 2.373 1.114.176.146.47.234.704.234.908.03 1.67.264 2.255.703.206.205.44.381.616.615.41.47.79.967 1.113 1.524l-2.11 1.23c-.351-.029-.703-.117-1.054-.146a1.11 1.11 0 0 0-.44 0 4.993 4.993 0 0 0-.556-.557c.293-.058.644-.058.996-.03.527.06.762-.204.527-.702-.117-.293-.322-.557-.498-.88.674.206.733.235 1.23 1.202.176.322.41.586.733.38.205-.116.352-.527.293-.79-.176-1.026-1.729-2.11-2.754-1.963-.146.03-.38.264-.38.41 0 1.377 0 1.377-1.202 1.64l-.03.03a3.493 3.493 0 0 0-.585-.234c-.147-1.026-.498-1.202-1.23-2.08.292.087.585.175.82.351.293.234.527.586.82.85.176.146.469.176.703.263.059-.263.205-.527.147-.761-.293-.996-1.055-1.553-2.051-1.758-.996-.205-1.934-.088-2.725.644-.117.088-.176.235-.146.205.644.41 1.347.704 1.845 1.23.235.265.41.528.528.85H8.32c-.175 0-.38 0-.556.03a2.243 2.243 0 0 0-.996-1.084c-1.026-.498-2.725-.264-3.575.498-.468.41-.673.908-.468 1.494.058.176.351.38.556.41.615.088.967-.322 1.319-.762.058-.058.058-.175.088-.322H3.633c.967-.85 1.933-.703 2.783.147-.176.088-.352.146-.498.263-.293-.234-.527-.263-.791.147-.176.264-.38.498-.615.732-.645.645-1.465.645-2.168.03-.117-.118-.44-.176-.528-.088-.263.175-.615.468-.615.703 0 .322.264.703.528.908.585.41 1.318.352 1.933.03.088-.03.147-.089.234-.118a4.29 4.29 0 0 0-.351 1.494v.352a4.807 4.807 0 0 0 4.805 4.805c1.787-.118 3.34-1.085 4.16-2.52ZM25.572 6.39l-.996 4.013a4.043 4.043 0 0 0-.674-.263 4.478 4.478 0 0 0-.879-.088 2.54 2.54 0 0 0-.937.175 2.165 2.165 0 0 0-.732.499c-.206.205-.352.468-.47.761a2.58 2.58 0 0 0-.175.967v6.065h-3.662v-12.1h3.457l.088 1.846c.088-.147.205-.293.293-.44.41-.527.908-.937 1.465-1.23a3.838 3.838 0 0 1 1.787-.44c.263 0 .527.03.761.059.264.058.47.117.674.176ZM39.783 6.419l-5.156 12.07-2.08 5.244h-3.604l2.373-5.566-5.39-11.748h4.101l2.55 6.064c.146.293.263.616.38.967.059.117.088.235.117.352.117-.322.205-.645.352-1.026l2.226-6.386h4.131v.029ZM53.435 9.202c-.468-.937-1.113-1.67-1.904-2.197a4.915 4.915 0 0 0-2.754-.82 5.13 5.13 0 0 0-1.992.38c-.644.264-1.142.586-1.553.997-.058.058-.117.117-.146.175l-.059-1.318H41.57v17.08h3.662v-6.24c.44.44.938.79 1.583 1.025.615.264 1.26.381 1.962.381 1.055 0 1.992-.264 2.783-.791.82-.527 1.436-1.26 1.905-2.226.469-.938.703-2.022.703-3.252-.059-1.172-.293-2.256-.733-3.194Zm-3.222 4.951c-.235.47-.557.82-.967 1.114-.41.263-.879.38-1.436.38-.556 0-1.054-.117-1.464-.38a2.581 2.581 0 0 1-.967-1.114c-.234-.498-.352-1.025-.352-1.699 0-.644.117-1.201.352-1.67.234-.469.556-.85.967-1.113.41-.264.908-.381 1.465-.381.556 0 1.054.117 1.435.38.41.265.703.645.938 1.114.234.469.351 1.026.351 1.67a3.53 3.53 0 0 1-.322 1.7ZM63.514 6.419v.322c-.235.293-.44.586-.616.908a7.892 7.892 0 0 0-.879 1.963h-.85v8.907h-3.632V9.612h-2.139V6.42h2.14V3.372h3.632V6.42h2.344ZM71.158 18.724c-1.26 0-2.373-.264-3.369-.82-.967-.557-1.758-1.29-2.314-2.227-.557-.938-.85-2.022-.85-3.223s.293-2.285.85-3.223c.556-.937 1.347-1.67 2.314-2.226.967-.557 2.11-.82 3.37-.82 1.259 0 2.372.263 3.368.82.967.557 1.758 1.289 2.315 2.226.556.938.85 2.022.85 3.223s-.294 2.285-.85 3.223c-.557.937-1.319 1.67-2.315 2.226-.996.557-2.109.82-3.369.82Zm0-3.135c.557 0 1.026-.147 1.465-.41.41-.264.762-.645.996-1.114.234-.468.352-.996.352-1.61a3.074 3.074 0 0 0-.352-1.642 2.826 2.826 0 0 0-.996-1.113 2.68 2.68 0 0 0-1.465-.41c-.556 0-1.025.147-1.465.41-.44.264-.761.645-1.025 1.114-.234.468-.352 1.025-.352 1.64-.029.615.088 1.143.352 1.611.234.47.586.85 1.025 1.114.44.263.909.41 1.465.41Z"/><path fill="#fff" d="M91.143 11.81a4.271 4.271 0 0 0-1.202-1.407c-.351-.263-.732-.44-1.142-.586a3.192 3.192 0 0 0 1.289-1.025c.44-.615.674-1.377.674-2.285 0-.82-.176-1.524-.586-2.11-.381-.585-.967-1.025-1.729-1.347-.761-.322-1.67-.469-2.783-.469h-7.031v3.955c.293.352.556.733.79 1.143.85 1.406 1.29 3.017 1.29 4.775 0 1.758-.41 3.37-1.26 4.776-.234.41-.498.79-.82 1.142v.117h7.265c.82 0 1.612-.088 2.286-.293A5.294 5.294 0 0 0 90 17.288a3.75 3.75 0 0 0 1.172-1.523c.264-.586.41-1.29.41-2.11 0-.674-.146-1.289-.44-1.845ZM84.96 5.804c.674 0 1.172.146 1.494.44.322.292.498.673.498 1.142 0 .322-.059.615-.205.85-.146.234-.352.41-.645.556-.292.117-.615.176-1.025.176h-2.842V5.804h2.725Zm2.549 8.672c-.176.263-.381.468-.703.585-.293.147-.674.206-1.084.206h-3.487v-3.428h3.37c.439 0 .82.059 1.142.176.322.117.557.322.733.556.175.235.263.528.263.88.03.439-.058.76-.234 1.025ZM102.713 6.39l-.996 4.013a4.052 4.052 0 0 0-.674-.263c-.293-.088-.557-.088-.879-.088-.322 0-.645.058-.937.175a2.164 2.164 0 0 0-.733.499c-.205.205-.351.468-.469.761a2.58 2.58 0 0 0-.175.967v6.065h-3.662v-12.1h3.456l.088 1.846c.088-.147.176-.293.293-.41.41-.528.909-.938 1.465-1.231a3.838 3.838 0 0 1 1.787-.44c.264 0 .528.03.762.06.234.028.469.087.674.146ZM112.205 6.419v1.465c-.234-.293-.469-.557-.762-.762-.351-.293-.791-.527-1.259-.703a4.48 4.48 0 0 0-1.582-.264c-1.055 0-1.993.264-2.813.791-.82.528-1.465 1.29-1.934 2.227-.468.937-.703 2.021-.703 3.252 0 1.201.235 2.285.703 3.223.469.937 1.114 1.699 1.905 2.226.791.527 1.699.791 2.724.791.557 0 1.055-.088 1.553-.234.498-.176.938-.381 1.318-.674a4.42 4.42 0 0 0 .762-.703v1.435h3.692V6.42h-3.604Zm-.293 7.734c-.234.47-.557.85-.967 1.114-.41.263-.908.38-1.465.38-.556 0-1.025-.117-1.406-.38a2.35 2.35 0 0 1-.937-1.114c-.235-.468-.352-1.025-.352-1.699 0-.644.117-1.201.352-1.7.234-.468.527-.849.937-1.112.381-.264.879-.381 1.406-.381.557 0 1.055.117 1.465.38.41.264.733.645.967 1.114.234.469.352 1.055.352 1.7 0 .644-.118 1.2-.352 1.698ZM121.053 4.046c-.674 0-1.231-.176-1.612-.498-.38-.322-.586-.791-.586-1.406 0-.557.206-.996.586-1.348.381-.352.938-.527 1.582-.527.674 0 1.202.175 1.582.498.381.322.557.79.557 1.377 0 .556-.205 1.025-.586 1.377-.381.351-.849.527-1.523.527Zm-1.817 14.473v-12.1h3.662v12.07h-3.662v.03ZM137.695 11.077v7.412h-3.662V11.4c0-.498-.058-.878-.205-1.2-.146-.323-.351-.557-.615-.704a1.895 1.895 0 0 0-1.025-.205c-.323 0-.616.059-.879.147a1.788 1.788 0 0 0-.704.439c-.205.176-.351.41-.468.645a1.747 1.747 0 0 0-.176.79v7.237h-3.633V6.418h3.457l.059 1.495c.058-.088.146-.176.205-.264a5.28 5.28 0 0 1 1.553-1.084 4.73 4.73 0 0 1 1.904-.41c.908 0 1.67.176 2.285.557.615.38 1.084.937 1.406 1.67.352.732.498 1.64.498 2.695ZM144.812 18.724c-1.171 0-2.226-.176-3.134-.557-.908-.38-1.612-.879-2.139-1.523l2.197-1.905c.469.469.996.82 1.582 1.026a4.436 4.436 0 0 0 1.67.322c.205 0 .41-.03.557-.059.176-.058.293-.117.41-.205a.837.837 0 0 0 .264-.293.858.858 0 0 0 .088-.41c0-.293-.147-.527-.411-.703a2.647 2.647 0 0 0-.673-.264 11.246 11.246 0 0 0-1.231-.351 11.262 11.262 0 0 1-1.846-.645c-.527-.263-.966-.556-1.289-.879a4.146 4.146 0 0 1-.703-1.054c-.175-.381-.263-.82-.263-1.319 0-.556.146-1.084.41-1.523.263-.469.615-.85 1.054-1.172.44-.322.967-.586 1.553-.762a6.337 6.337 0 0 1 1.817-.263c.673 0 1.318.087 1.904.234a6.575 6.575 0 0 1 1.699.644c.527.264.996.586 1.406.967l-1.904 2.139a5.389 5.389 0 0 0-.908-.703 5.72 5.72 0 0 0-1.055-.498 3.247 3.247 0 0 0-.996-.176c-.234 0-.439.03-.615.059a.997.997 0 0 0-.44.175.825.825 0 0 0-.263.293.846.846 0 0 0-.088.41c0 .147.029.294.117.44.088.146.205.264.352.351.146.088.38.206.732.293.322.118.791.264 1.377.41.703.206 1.318.41 1.846.675.527.234.937.527 1.23.878.235.264.41.557.557.909.117.351.176.703.176 1.113 0 .762-.206 1.465-.645 2.05a4.308 4.308 0 0 1-1.787 1.407c-.762.322-1.641.469-2.608.469Z"/></svg>