<svg xmlns="http://www.w3.org/2000/svg" id="Layer_1" data-name="Layer 1" viewBox="0 0 26.24 19.92"><defs><style>.cls-1{fill:#fff}</style></defs><path d="M9.69 10.44h-.07a1.32 1.32 0 1 0 .07 0ZM16.69 10.44h-.07a1.32 1.32 0 1 0 .07 0Z" class="cls-1"/><path d="M26.17 14.59 22.46 2.22a1.72 1.72 0 0 0-1-1.13 19.93 19.93 0 0 0-3.37-1 1.79 1.79 0 0 0-1.24.19 1.71 1.71 0 0 0-.8 1l-.65 2a18.57 18.57 0 0 0-2.23-.26 18.86 18.86 0 0 0-2.25.13l-.64-1.95A1.76 1.76 0 0 0 8.17.04a19.76 19.76 0 0 0-3.38 1 1.71 1.71 0 0 0-1 1.13L.07 14.59a1.78 1.78 0 0 0 .53 1.85 16.79 16.79 0 0 0 7 3.45 1.74 1.74 0 0 0 2-.92l1-2.08a18.21 18.21 0 0 0 2.45.15 18.06 18.06 0 0 0 2.44-.15l1.05 2.08a1.73 1.73 0 0 0 2 .92 16.77 16.77 0 0 0 7-3.45 1.75 1.75 0 0 0 .63-1.85Zm-1.68.52a15 15 0 0 1-6.32 3.06l-.8-1.59a17.51 17.51 0 0 0 1.86-.48.87.87 0 0 0-.51-1.66 18.32 18.32 0 0 1-5.6.84 18.26 18.26 0 0 1-5.6-.84.89.89 0 0 0-1.1.58.87.87 0 0 0 .57 1.09 17.69 17.69 0 0 0 1.87.48l-.8 1.59a15.2 15.2 0 0 1-6.31-3.06l3.71-12.4a18.57 18.57 0 0 1 3.1-1l.61 1.72c-.72.14-1.43.31-2.13.52a.88.88 0 0 0-.57 1.1.87.87 0 0 0 1.1.57 18.56 18.56 0 0 1 5.59-.83 18.39 18.39 0 0 1 2.57.17 1 1 0 0 0 .29 0 19.47 19.47 0 0 1 2.72.62.87.87 0 0 0 1.09-.58.89.89 0 0 0-.58-1.1c-.7-.21-1.41-.38-2.12-.52l.54-1.65a18.57 18.57 0 0 1 3.1 1l3.71 12.38.57.66Z" class="cls-1"/></svg>