<svg xmlns="http://www.w3.org/2000/svg" xml:space="preserve" id="Layer_1" x="0" y="0" style="enable-background:new 0 0 23 23" version="1.1" viewBox="0 0 23 23"><style>.st0{fill:#fff}</style><path d="M20.8.6H2.4C1.4.6.6 1.4.6 2.4v18.4c0 1 .8 1.8 1.8 1.8h18.4c1 0 1.8-.8 1.8-1.8V2.3c-.1-1-.9-1.7-1.8-1.7zm0 20.1H2.4V2.3h18.4v18.4z" class="st0"/><path d="M10.7 17.6c.5 0 .9-.4.9-.9v-3.9c0-1.2 1-2.2 2.2-2.2 1.2 0 2.2 1 2.2 2.2v3.9c0 .5.4.9.9.9s.9-.4.9-.9v-3.9c0-2.2-1.8-3.9-3.9-3.9-.8 0-1.6.3-2.2.7-.1-.4-.4-.7-.8-.7-.5 0-.9.4-.9.9v7c-.2.4.2.8.7.8zM7.2 8.9c-.5 0-.9.4-.9.9v7c0 .5.4.9.9.9s.9-.4.9-.9v-7c0-.5-.4-.9-.9-.9zM7.2 7.6c.7 0 1.3-.6 1.3-1.3s-.6-1.4-1.3-1.4c-.7.1-1.3.7-1.3 1.4s.6 1.2 1.3 1.3z" class="st0"/></svg>