<svg xmlns="http://www.w3.org/2000/svg" xml:space="preserve" id="Layer_1" x="0" y="0" style="enable-background:new 0 0 23 23" version="1.1" viewBox="0 0 23 23"><style>.st0{fill:#fff}</style><path d="M11.7 6.2c-2.9 0-5.2 2.4-5.2 5.2s2.4 5.2 5.2 5.2c2.9 0 5.2-2.4 5.2-5.2s-2.3-5.2-5.2-5.2zm0 8.8c-1.9 0-3.5-1.6-3.5-3.5S9.8 8 11.7 8s3.5 1.6 3.5 3.5-1.6 3.5-3.5 3.5z" class="st0"/><path d="M16.5.6H6.9C3.5.6.8 3.3.8 6.7v9.6c0 3.4 2.7 6.1 6.1 6.1h9.6c3.4 0 6.1-2.7 6.1-6.1V6.7c0-3.4-2.7-6.1-6.1-6.1zm4.4 15.7c0 2.4-2 4.4-4.4 4.4H6.9c-2.4 0-4.4-2-4.4-4.4V6.7c0-2.4 2-4.4 4.4-4.4h9.6c2.4 0 4.4 2 4.4 4.4v9.6z" class="st0"/><circle cx="17.4" cy="5.8" r="1.3" class="st0"/></svg>