<svg xmlns="http://www.w3.org/2000/svg" xml:space="preserve" style="enable-background:new 0 0 24 23" viewBox="0 0 24 23"><path d="M23.6 1.7c-.2-.4-.5-.7-.8-.9-.4-.2-1-.3-1.4-.1L1.2 8.6c-1.6.6-1.4 3 .3 3.3l5.1 1v6.4c0 .5.2.9.5 1.2.7.7 1.8.7 2.5 0l2.8-2.8 4.3 3.8c.2.2.5.3.8.4.9.2 1.9-.4 2.1-1.3l4.1-18c.1-.2.1-.6-.1-.9zM1.8 10.2l15.3-6-9.8 7.1-5.5-1.1zm6.6 9.2v-5.2l2.8 2.4-2.8 2.8zm9.5.9L13.1 16s0-.1-.1-.1c0 0-.1 0-.1-.1l-4-3.5 13-9.4-4 17.4z" style="fill-rule:evenodd;clip-rule:evenodd;fill:#fff"/></svg>