<svg xmlns="http://www.w3.org/2000/svg" xml:space="preserve" id="Layer_1" x="0" y="0" style="enable-background:new 0 0 25 20" version="1.1" viewBox="0 0 25 20"><style>.st0{fill-rule:evenodd;clip-rule:evenodd;fill:#fff}</style><path d="M11.5 5.9c-.3-.2-.6-.2-.9 0-.3.2-.5.4-.5.8v7c0 .2.1.3.1.5.3.4.8.5 1.2.2l5.2-3.5c.1-.1.2-.1.2-.2.3-.4.2-.9-.2-1.2l-5.1-3.6zm.4 6.1V8.3l2.8 1.9-2.8 1.8z" class="st0"/><path d="M24.4 3.8c-.2-.8-.8-1.5-1.6-1.8-2-.7-4.5-1.1-6.5-1.3C15.1.6 14 .5 12.8.5h-.4c-1.1 0-2.2.1-3.3.2-1.9.2-4.4.5-6.4 1.3-.8.3-1.4 1-1.6 1.8-.3 1.1-.6 3-.6 6.4s.3 5.3.6 6.4c.2.8.8 1.5 1.6 1.8 2 .7 4.5 1.1 6.5 1.3 1.2.1 2.3.2 3.5.2H13c1.1 0 2.2-.1 3.3-.2 2-.2 4.5-.5 6.5-1.3.8-.3 1.4-1 1.6-1.8.3-1.1.6-3 .6-6.4s-.3-5.4-.6-6.4zm-1.7 12.3c-.1.3-.3.5-.5.6-1.7.7-4 1-6 1.2-1.1 0-2.1.1-3.2.1h-.4c-1.1 0-2.2-.1-3.4-.2-2-.2-4.3-.5-6-1.2-.3-.1-.5-.3-.5-.6-.2-.9-.6-2.7-.6-5.9s.3-5 .6-5.9c.1-.3.3-.5.5-.6 1.7-.7 4-1 6-1.2 1.1-.1 2.1-.1 3.2-.2h.3c1.1 0 2.2.1 3.4.2 2 .2 4.3.5 6 1.2.3.1.5.3.5.6.2.9.6 2.7.6 5.9s-.3 5.1-.5 6z" class="st0"/></svg>