<svg xmlns="http://www.w3.org/2000/svg" width="180" height="100" fill="none"><g clip-path="url(#a)"><path fill="url(#b)" d="M19.418 30.97 0 45.718V100h315V16.223L281.918 75.95l-7.192-19.91-10.068 23.597-17.261-52.355-14.383 18.435L208.562 0l-40.274 36.87L145.274 0l-22.295 30.97-7.911-22.121-21.575 54.566-10.068-14.747L71.199 75.95 58.253 27.283l-17.26 18.435L19.418 30.97Z"/><path stroke="#06B470" stroke-linecap="round" stroke-width="2" d="M0 45.718 19.418 30.97l21.575 14.748 17.26-18.435L71.2 75.951l12.226-27.283 10.068 14.748 21.575-54.567 7.911 22.121L145.274 0l23.014 36.87L208.562 0l24.452 45.718 14.383-18.435 17.261 52.355 10.068-23.596 7.192 19.91L315 16.221"/></g><defs><linearGradient id="b" x1="157.5" x2="157.004" y1="0" y2="100" gradientUnits="userSpaceOnUse"><stop stop-color="#1BC28A" stop-opacity=".3"/><stop offset=".867" stop-color="#1BC28A" stop-opacity="0"/></linearGradient><clipPath id="a"><path fill="#fff" d="M0 0h180v100H0z"/></clipPath></defs></svg>