<svg xmlns="http://www.w3.org/2000/svg" width="24" height="24" fill="none"><g fill="#00A6C4" fill-rule="evenodd" clip-path="url(#a)" clip-rule="evenodd"><path d="M1.99 6.042c.037.033.067.058.095.085.302.291.6.585.905.872.069.065.07.109.02.183-.64.964-.872 2.02-.658 3.139.286 1.501 1.162 2.595 2.594 3.255.846.389 1.743.489 2.665.353.62-.092 1.2-.3 1.73-.627.088-.055.136-.048.208.022.778.762 1.562 1.52 2.34 2.284.085.084.13.094.222.004.889-.866 1.785-1.725 2.673-2.59.098-.096.16-.112.288-.038.777.451 1.624.633 2.53.592 1.797-.081 3.438-1.294 3.995-2.958.422-1.26.265-2.456-.422-3.594-.045-.074-.049-.12.02-.184.25-.233.494-.473.74-.71.024-.021.05-.04.074-.062a11.177 11.177 0 0 1-1.232 14.171c-4.389 4.584-11.631 4.94-16.467 1.006C-.601 17.25-1.185 10.691 1.99 6.042Z"/><path d="M20.24 4.56C15.529-.091 7.866.303 3.778 4.374c.023.026.046.053.072.078 2.701 2.613 5.403 5.225 8.102 7.84.076.073.12.064.189-.004.348-.341.7-.68 1.053-1.017 2.278-2.185 4.556-4.369 6.835-6.552.062-.059.137-.103.213-.16Zm-8.2 9.381L2.164 4.376c.024-.031.043-.06.067-.085C3.418 3.018 4.798 1.99 6.407 1.258 7.287.858 8.2.558 9.15.36c1.094-.227 2.2-.32 3.318-.271 1.63.07 3.188.43 4.678 1.072 1.792.772 3.305 1.9 4.588 3.324.075.083.032.12-.025.174L16.92 9.258l-4.777 4.59c-.029.028-.06.054-.103.093ZM7.793 11.704c-.669.59-2.156.727-3.14-.222-.987-.952-.852-2.36-.204-3.092l3.344 3.314ZM16.441 11.475l3.35-3.24c.47.508.69 1.808-.126 2.766-.908 1.065-2.404 1.059-3.224.474Z"/></g><defs><clipPath id="a"><path fill="#fff" d="M0 0h24v24H0z"/></clipPath></defs></svg>