<svg xmlns="http://www.w3.org/2000/svg" width="24" height="24" fill="none"><g fill-rule="evenodd" clip-path="url(#a)" clip-rule="evenodd"><path fill="#002E64" d="M23.888 11.973c0 6.594-5.346 11.94-11.94 11.94-6.594 0-11.94-5.346-11.94-11.94 0-6.595 5.346-11.94 11.94-11.94 6.595 0 11.94 5.345 11.94 11.94Z"/><path fill="#fff" d="M9.194 17.195a2.769 2.769 0 0 0 2.772 2.767 2.763 2.763 0 0 0 2.761-2.761 2.767 2.767 0 1 0-5.533-.006Zm0-9.244a2.772 2.772 0 0 0 2.764 2.768c1.575.006 2.773-1.295 2.77-2.76a2.763 2.763 0 0 0-2.766-2.775A2.764 2.764 0 0 0 9.194 7.95Zm2.446 5.858v-2.485a3.354 3.354 0 0 1-2.25-1.17c-.4-.463-.656-1.001-.764-1.605-.254-1.417.387-2.752 1.462-3.428 1.38-.868 2.735-.745 4.05.207l1.966-1.974.416.46-1.95 1.941c.102.15.205.288.293.434.356.588.518 1.23.486 1.916a3.4 3.4 0 0 1-2.354 3.073c-.21.067-.434.095-.653.135-.049.009-.064.023-.064.072.002.789.002 1.578 0 2.367 0 .042.006.066.058.071.75.082 1.4.386 1.95.904.482.454.806 1.002.966 1.645a3.39 3.39 0 0 1-3.468 4.213 3.389 3.389 0 0 1-3.116-2.574 3.416 3.416 0 0 1 1.686-3.811 3.15 3.15 0 0 1 1.233-.378l.032-.004.02-.01Z"/></g><defs><clipPath id="a"><path fill="#fff" d="M0 0h24v24H0z"/></clipPath></defs></svg>