<svg xmlns="http://www.w3.org/2000/svg" width="24" height="24" fill="none"><g fill-rule="evenodd" clip-path="url(#a)" clip-rule="evenodd"><path fill="#5791A3" d="M23.935 12.028c0 6.595-5.345 11.94-11.94 11.94S.055 18.623.055 12.028C.055 5.434 5.4.088 11.995.088s11.94 5.346 11.94 11.94Z"/><path fill="#337D97" d="M23.226 12.029c0 3.915-2.004 7.364-5.043 9.372a11.163 11.163 0 0 1-6.186 1.858 11.196 11.196 0 0 1-5.84-1.636 11.224 11.224 0 0 1-5.391-9.594C.766 5.826 5.794.798 11.996.798c6.202 0 11.23 5.028 11.23 11.23Z"/><path fill="#fff" d="M8.115 11.356c0-1.577.262-2.757.784-3.54.521-.784 1.305-1.175 2.348-1.175.829 0 1.573.319 2.23.954.659.635.988 1.792.988 3.472 0 1.668-.31 2.84-.928 3.515-.618.675-1.36 1.013-2.222 1.013-.93 0-1.696-.34-2.297-1.021-.602-.682-.903-1.754-.903-3.218Zm9.907 9.822c-.602-.772-1.408-1.286-2.417-1.54-1.01-.256-2.45-.429-4.323-.52-1.714-.09-2.837-.226-3.37-.408-.545-.17-.818-.466-.818-.886 0-.895 1.203-1.384 3.609-1.464 2.315-.079 3.96-.646 4.936-1.701.975-1.045 1.464-2.247 1.464-3.609 0-1.044-.295-2.032-.885-2.962l-.02-.024h.984s.573-1.423.433-1.423c-.139 0-.061-.062-.317.194-.255.255-.603.193-.603.193h-1.619l-.098-.07a42.65 42.65 0 0 0 1.74-1.88c.905-1.043.998-2.97-.835-3.039-1.833-.07-1.74 1.648-1.74 1.648l.1-.016s.116-1.029 1.292-1.013c1.175.015.959 1.508.959 1.508-.091.805-1.108 1.926-1.799 2.603-.97-.605-2.13-.91-3.481-.91-1.532 0-2.857.495-3.975 1.489-1.118.993-1.676 2.198-1.676 3.616 0 1.01.272 1.924.816 2.74.545.819 1.357 1.545 2.435 2.18-2.077.386-3.115 1.322-3.115 2.808 0 .773.363 1.402 1.089 1.89.071.05.15.096.238.141-.229.11-.426.265-.592.467a2.16 2.16 0 0 0-.277.432c.432.264.885.5 1.353.704.103-.424.296-.836.58-1.235.846.202 1.994.332 3.447.393 2.122.09 3.597.363 4.425.816.082.046.158.095.23.146a11 11 0 0 0 1.991-1.046 3.476 3.476 0 0 0-.16-.222Z"/></g><defs><clipPath id="a"><path fill="#fff" d="M0 0h24v24H0z"/></clipPath></defs></svg>