<svg xmlns="http://www.w3.org/2000/svg" width="24" height="24" fill="none"><g fill="#2067B0" fill-rule="evenodd" clip-path="url(#a)" clip-rule="evenodd"><path d="m12.003 15.66-1.855 1.854-2.99 2.99a2.625 2.625 0 0 1-3.709 0 2.625 2.625 0 0 1 0-3.708l2.086-2.085-1.855-1.854-2.084 2.084A5.229 5.229 0 0 0 .062 18.65c0 1.342.51 2.686 1.534 3.708a5.23 5.23 0 0 0 3.708 1.533 5.229 5.229 0 0 0 3.708-1.533l4.845-4.845 2.804-2.805-1.854-1.854-2.804 2.806ZM22.409 1.544a5.25 5.25 0 0 0-7.416 0l-2.99 2.991-1.855 1.854-3.708 3.708-1.854 1.854-.023.023 1.855 1.854.022-.023 1.854-1.854 3.709-3.708 1.854-1.854 2.99-2.991a2.627 2.627 0 0 1 3.708 0c.496.495.768 1.154.768 1.855 0 .7-.272 1.358-.768 1.853l-2.99 2.991-1.855 1.854-.02.02 1.854 1.854.02-.02 1.855-1.854 2.99-2.99a5.249 5.249 0 0 0 0-7.417Z"/><path d="m22.41 14.941-7.646-7.645L12.91 9.15l2.8 2.801 1.854 1.854 2.991 2.99a2.624 2.624 0 0 1 0 3.709 2.625 2.625 0 0 1-3.708 0l-2.99-2.99-1.854-1.854-5.562-5.563-2.991-2.99a2.608 2.608 0 0 1-.768-1.855c0-.7.273-1.359.768-1.854a2.614 2.614 0 0 1 1.854-.767c.672 0 1.343.256 1.854.767l2.99 2.99 1.855 1.855.024.024 1.854-1.854-4.87-4.869a5.25 5.25 0 0 0-7.415 0 5.25 5.25 0 0 0 0 7.416l2.99 2.991 1.855 1.854 3.707 3.709 1.855 1.853 2.99 2.991a5.23 5.23 0 0 0 3.708 1.533c.672 0 1.343-.127 1.975-.383a5.207 5.207 0 0 0 1.733-1.15 5.25 5.25 0 0 0 0-7.417Z"/></g><defs><clipPath id="a"><path fill="#fff" d="M0 0h24v24H0z"/></clipPath></defs></svg>