<svg xmlns="http://www.w3.org/2000/svg" width="24" height="24" fill="none"><g fill-rule="evenodd" clip-path="url(#a)" clip-rule="evenodd"><path fill="#573F8F" d="M23.888 12.027c0 6.595-5.345 11.94-11.94 11.94-6.594 0-11.94-5.345-11.94-11.94 0-6.594 5.346-11.94 11.94-11.94 6.595 0 11.94 5.346 11.94 11.94Z"/><path fill="#fff" d="M12.244 13.009c-.473 0-.946.006-1.419-.003-.196-.004-.278.063-.274.266.01.492.008.985 0 1.477-.002.2.075.272.274.27.927-.006 1.854-.006 2.78 0 .207.002.297-.065.292-.283a31.35 31.35 0 0 1 0-1.448c.006-.22-.085-.286-.291-.282-.454.009-.908.003-1.362.003ZM7.16 19.29c-.074-.293-.046-.46.284-.51.38-.06.628-.403.662-.815.016-.193.018-.386.018-.58l.001-7.645c0-.376.001-.376.386-.377.58 0 1.159.01 1.738-.005.247-.006.318.087.309.32-.014.366.003.734-.005 1.1-.005.201.052.3.276.297.927-.009 1.853-.007 2.78-.001.21 0 .294-.073.29-.288a34.77 34.77 0 0 1 0-1.448c.003-.203-.077-.271-.273-.27-2.144.003-4.287-.002-6.43.011-.121 0-.29.11-.355.219-.5.837-.984 1.683-1.456 2.536a.466.466 0 0 0-.006.385c.487.877.988 1.746 1.501 2.61.056.092.204.15.32.18.129.03.276-.017.402.018.081.023.194.13.197.202.017.502.006 1.004.011 1.506.002.17-.08.214-.232.214-.705-.004-1.41.004-2.114-.01a.375.375 0 0 1-.266-.161 407.593 407.593 0 0 1-2.62-4.538.499.499 0 0 1 0-.417c.864-1.519 1.739-3.03 2.624-4.536.053-.09.215-.158.328-.16.743-.015 1.487-.021 2.23-.002.3.008.398-.096.367-.383-.035-.334-.013-.68-.09-1.003-.043-.18-.252-.313-.36-.485-.083-.134-.126-.294-.204-.485.172-.014.256-.027.34-.027 1.005-.001 2.009-.005 3.013.005.099.001.258.07.282.142.043.133.057.292-.135.392-.124.065-.272.206-.29.331-.068.445-.091.897-.111 1.348-.002.05.122.15.188.15.975.01 1.95.012 2.925-.002.07-.001.196-.13.198-.204a8.116 8.116 0 0 0-.024-1.01c-.025-.28-.158-.495-.416-.657-.102-.064-.108-.283-.171-.473.171-.01.265-.022.358-.022.985-.001 1.97-.005 2.955.005.103 0 .272.059.294.127.044.142.058.298-.14.416-.148.088-.273.274-.328.443-.07.215-.077.456-.077.686-.005 2.742 0 5.484-.01 8.225 0 .29.08.386.376.381.782-.013.791.004 1.16-.696.148-.28.245-.586.365-.88l-.072-.055c.073-.009.146-.026.22-.026.897-.001 1.795-.005 2.693.007.096.001.258.075.274.144.034.141.062.299-.152.405a1.345 1.345 0 0 0-.525.467 42.186 42.186 0 0 0-1.248 2.154c-.162.3-.348.414-.698.412-2.587-.016-5.175-.01-7.762-.009-.399 0-.406.001-.398.396.005.26.01.522.055.777.063.37.302.606.67.671.21.038.272.133.258.33-.017.234-.185.184-.32.185-1.264.003-2.53.002-3.794 0-.085 0-.17-.01-.266-.017Z"/><path fill="#fff" d="M19.73 10.698c-.444 0-.889-.007-1.332.003-.198.005-.263-.061-.27-.264-.016-.522-.387-.887-.636-1.301-.041-.068-.23-.06-.352-.063-.578-.012-.498.059-.503-.517-.004-.395.007-.791-.004-1.187-.005-.192.07-.252.255-.25.685.006 1.37.008 2.055-.002.2-.003.291.102.378.254.43.754.852 1.514 1.31 2.25.134.218.356.402.578.536.188.114.163.258.132.392-.016.066-.162.14-.251.143-.453.014-.907.006-1.36.006ZM15.114 19.31c-.656 0-1.312.006-1.968-.008-.078-.002-.2-.097-.22-.17-.035-.13-.046-.276.168-.327.562-.131.784-.425.8-1.003.014-.547.014-.547.557-.547.502 0 1.005.015 1.505-.006.283-.012.414.057.379.365-.019.16.005.328.036.488.073.378.305.627.685.692.215.037.265.135.254.33-.013.238-.182.184-.315.184-.627.005-1.254.002-1.881.002Z"/></g><defs><clipPath id="a"><path fill="#fff" d="M0 0h24v24H0z"/></clipPath></defs></svg>