<svg xmlns="http://www.w3.org/2000/svg" width="24" height="24" fill="none"><g fill="#000" fill-rule="evenodd" clip-path="url(#a)" clip-rule="evenodd"><path d="M14.753 6.125c.25 0 .453-.21.453-.471a.462.462 0 0 0-.453-.471.462.462 0 0 0-.452.47c0 .261.202.472.452.472ZM13.73 5.306c.316 0 .571-.266.571-.594a.583.583 0 0 0-.57-.595.583.583 0 0 0-.57.595c0 .328.255.594.57.594ZM14.153 6.847a.552.552 0 0 0-.54.562c0 .31.242.563.54.563.299 0 .54-.252.54-.563a.552.552 0 0 0-.54-.562ZM12.304 4.545a.641.641 0 0 0 .628-.654.641.641 0 0 0-.628-.654.641.641 0 0 0-.628.654c0 .362.281.654.628.654ZM12.086 6.596c0 .362.281.655.628.655a.641.641 0 0 0 .628-.655.641.641 0 0 0-.628-.654.641.641 0 0 0-.628.654ZM13.882 10.222a.641.641 0 0 0 .628-.654.641.641 0 0 0-.628-.654.641.641 0 0 0-.628.654c0 .361.281.654.628.654ZM10.474 4.117c.402 0 .728-.34.728-.758 0-.419-.326-.758-.728-.758-.402 0-.728.34-.728.758 0 .419.326.758.728.758ZM12.757 9.036c0-.42-.326-.759-.728-.759-.402 0-.728.34-.728.759 0 .418.326.758.728.758.402 0 .728-.34.728-.758ZM10.148 6.045c0 .42.326.759.729.759.402 0 .728-.34.728-.759 0-.418-.326-.758-.728-.758-.403 0-.729.34-.729.758ZM8.231 4.117c.467 0 .845-.393.845-.88 0-.485-.378-.879-.845-.879-.466 0-.844.394-.844.88s.378.88.844.88ZM7.781 5.912c0 .485.378.88.845.88.466 0 .844-.395.844-.88 0-.486-.378-.88-.844-.88-.467 0-.845.394-.845.88ZM9.81 8.035c-.467 0-.845.394-.845.88 0 .485.378.88.844.88.467 0 .845-.395.845-.88 0-.486-.378-.88-.845-.88ZM5.615 4.711c.538 0 .974-.454.974-1.014s-.436-1.014-.974-1.014-.974.454-.974 1.014.436 1.014.974 1.014ZM5.05 6.394c0 .56.437 1.015.975 1.015s.974-.454.974-1.015c0-.56-.436-1.014-.974-1.014s-.974.454-.974 1.014ZM6.223 9.407c0 .56.436 1.014.974 1.014s.974-.454.974-1.014-.436-1.014-.974-1.014-.974.454-.974 1.014ZM3.164 8.884c.641 0 1.16-.541 1.16-1.209 0-.667-.519-1.208-1.16-1.208-.64 0-1.16.54-1.16 1.208 0 .668.52 1.209 1.16 1.209ZM4.324 9.438c-.64 0-1.16.54-1.16 1.208 0 .667.52 1.208 1.16 1.208.641 0 1.16-.54 1.16-1.208 0-.667-.519-1.209-1.16-1.209ZM1.392 11.5c-.754 0-1.365.636-1.365 1.421s.611 1.421 1.365 1.421 1.364-.636 1.364-1.421-.61-1.421-1.364-1.421ZM6.639 12.96a.443.443 0 0 0-.617-.175.482.482 0 0 0-.17.642c.124.227.4.306.618.177a.482.482 0 0 0 .169-.643ZM5.683 14.071a.608.608 0 0 0-.214.81.559.559 0 0 0 .779.223.608.608 0 0 0 .213-.81.559.559 0 0 0-.778-.223ZM8.276 13.359a.575.575 0 0 0 .202-.767.529.529 0 0 0-.736-.21.576.576 0 0 0-.202.767c.147.27.477.364.736.21ZM6.298 16.852a.669.669 0 0 0 .235-.892.615.615 0 0 0-.856-.244.669.669 0 0 0-.235.892.615.615 0 0 0 .856.244ZM7.496 14.896a.615.615 0 0 0 .857.244.67.67 0 0 0 .235-.892.615.615 0 0 0-.857-.244.669.669 0 0 0-.235.892ZM9.634 11.476a.669.669 0 0 0-.235.892.615.615 0 0 0 .856.245.669.669 0 0 0 .235-.892.615.615 0 0 0-.856-.245ZM7.084 17.828a.713.713 0 0 0-.993-.283.775.775 0 0 0-.273 1.034c.2.364.644.49.993.284a.775.775 0 0 0 .273-1.035ZM10.776 14.646a.775.775 0 0 0 .272-1.034.713.713 0 0 0-.993-.284.775.775 0 0 0-.272 1.034c.2.364.644.491.993.284ZM8.85 17.168a.776.776 0 0 0 .273-1.034.713.713 0 0 0-.994-.284.776.776 0 0 0-.272 1.035c.2.364.644.49.993.283ZM8.192 19.858a.827.827 0 0 0-1.152-.329.9.9 0 0 0-.316 1.2c.231.422.747.57 1.152.329a.9.9 0 0 0 .316-1.2ZM9.915 19.378a.9.9 0 0 0 .316-1.2.827.827 0 0 0-1.152-.328.9.9 0 0 0-.316 1.2c.231.421.747.569 1.152.328ZM11.829 16.818a.9.9 0 0 0 .316-1.2.827.827 0 0 0-1.152-.329.9.9 0 0 0-.316 1.2c.231.422.747.57 1.152.329ZM8.656 21.553c-.467.277-.63.897-.364 1.384a.954.954 0 0 0 1.328.379c.468-.277.63-.897.365-1.383a.953.953 0 0 0-1.329-.38ZM10.703 19.844c-.467.277-.63.897-.364 1.384a.954.954 0 0 0 1.328.379c.468-.277.63-.897.364-1.383a.953.953 0 0 0-1.328-.38ZM13.6 19.056c.468-.277.631-.896.365-1.383a.954.954 0 0 0-1.328-.38c-.468.278-.63.897-.365 1.384a.953.953 0 0 0 1.329.38ZM13.094 21.632c-.557.33-.751 1.069-.434 1.648.317.58 1.026.783 1.583.452.556-.33.75-1.068.434-1.648-.317-.58-1.026-.782-1.583-.452ZM15 19.112c-.556.33-.75 1.068-.434 1.648.318.58 1.026.782 1.583.452.557-.33.751-1.069.434-1.648A1.136 1.136 0 0 0 15 19.112ZM18.248 20.455c-.655.389-.883 1.256-.51 1.938.373.682 1.206.92 1.86.532.655-.389.884-1.257.51-1.939-.372-.681-1.205-.92-1.86-.53ZM16.983 16.747a.443.443 0 0 0-.618.175.482.482 0 0 0 .167.643c.217.13.494.051.618-.175a.482.482 0 0 0-.167-.643ZM17.767 17.215a.559.559 0 0 0 .78-.22.608.608 0 0 0-.212-.81.559.559 0 0 0-.779.22.608.608 0 0 0 .211.81ZM15.864 15.252a.529.529 0 0 0-.738.209.575.575 0 0 0 .2.767.529.529 0 0 0 .738-.208.575.575 0 0 0-.2-.768ZM19.132 16.387c.301.18.685.07.857-.242a.669.669 0 0 0-.232-.893.615.615 0 0 0-.857.242.669.669 0 0 0 .232.893ZM17.3 14.278a.615.615 0 0 0-.857.242.669.669 0 0 0 .232.893c.301.18.685.071.857-.242a.669.669 0 0 0-.232-.893ZM13.617 14.99c.3.18.684.071.857-.242a.669.669 0 0 0-.233-.893.615.615 0 0 0-.857.242.669.669 0 0 0 .233.893ZM21.16 13.772a.712.712 0 0 0-.993.281c-.2.363-.08.827.27 1.035a.713.713 0 0 0 .993-.28.776.776 0 0 0-.27-1.036ZM14.663 12.635c-.2.364-.08.827.27 1.035a.712.712 0 0 0 .993-.28.775.775 0 0 0-.27-1.036.713.713 0 0 0-.993.281ZM17.999 14.116a.713.713 0 0 0 .994-.28.776.776 0 0 0-.27-1.035.713.713 0 0 0-.994.28c-.2.364-.079.827.27 1.035ZM22.436 11.7a.826.826 0 0 0-1.152.326.9.9 0 0 0 .313 1.2.826.826 0 0 0 1.152-.325.9.9 0 0 0-.313-1.2ZM19.17 12.252a.826.826 0 0 0 1.153-.326.9.9 0 0 0-.312-1.2.827.827 0 0 0-1.153.326.9.9 0 0 0 .313 1.2ZM16.081 11.832a.826.826 0 0 0 1.152-.326.9.9 0 0 0-.312-1.2.827.827 0 0 0-1.153.326.9.9 0 0 0 .313 1.2ZM23.42 8.99a.953.953 0 0 0-1.33.376 1.038 1.038 0 0 0 .36 1.384.953.953 0 0 0 1.33-.376 1.037 1.037 0 0 0-.36-1.384ZM19.998 9.782a.954.954 0 0 0 1.33-.375 1.038 1.038 0 0 0-.362-1.385.953.953 0 0 0-1.33.376 1.038 1.038 0 0 0 .362 1.384ZM18.233 8.966a1.038 1.038 0 0 0-.36-1.384.953.953 0 0 0-1.33.375 1.037 1.037 0 0 0 .36 1.385.953.953 0 0 0 1.33-.376ZM20.26 6.727a1.136 1.136 0 0 0 1.583-.448c.319-.579.126-1.317-.43-1.649a1.136 1.136 0 0 0-1.583.447c-.32.58-.127 1.318.43 1.65ZM18.363 4.201a1.136 1.136 0 0 0-1.584.448c-.319.579-.126 1.317.43 1.65a1.136 1.136 0 0 0 1.583-.448c.32-.58.127-1.318-.43-1.65ZM16.67 2.702c.654.39 1.488.155 1.863-.526.374-.681.148-1.55-.506-1.94-.653-.39-1.487-.154-1.862.526-.374.681-.148 1.55.506 1.94Z"/></g><defs><clipPath id="a"><path fill="#fff" d="M0 0h24v24H0z"/></clipPath></defs></svg>