<svg xmlns="http://www.w3.org/2000/svg" width="24" height="24" fill="none"><g fill-rule="evenodd" clip-path="url(#a)" clip-rule="evenodd"><path fill="#FCB000" d="m20.391 3.578-3.064 3.064a.904.904 0 0 0-.295-.196l-4.737-1.963a.911.911 0 0 0-.695 0L6.863 6.446a.906.906 0 0 0-.295.196L3.504 3.578a1.43 1.43 0 0 1 .462-.308L11.402.19c.35-.145.741-.145 1.09 0l7.436 3.08c.175.072.331.178.463.308Z"/><path fill="#3D6E6E" d="m23.78 12.567-3.08 7.435a1.43 1.43 0 0 1-.77.771l-7.437 3.08c-.349.145-.74.145-1.09 0l-7.436-3.08a1.43 1.43 0 0 1-.771-.77l-3.08-7.436a1.425 1.425 0 0 1 0-1.091l3.08-7.435c.072-.175.178-.331.309-.463l3.064 3.064a.911.911 0 0 1 .294-.197l4.738-1.962a.911.911 0 0 1 .694 0l4.738 1.962c.11.046.211.114.294.197l3.065-3.064c.13.132.236.288.308.463l3.08 7.435c.145.35.145.742 0 1.09Z"/><path fill="#fff" d="m19.485 12.37-1.962 4.737a.895.895 0 0 1-.491.491l-4.738 1.962a.911.911 0 0 1-.694 0l-4.738-1.962a.91.91 0 0 1-.49-.491L4.408 12.37a.908.908 0 0 1 0-.695l1.962-4.737a.9.9 0 0 1 .491-.492L11.6 4.484a.91.91 0 0 1 .694 0l4.738 1.962a.906.906 0 0 1 .49.492l1.963 4.737a.908.908 0 0 1 0 .695Z"/><path fill="#3F7070" d="m15.51 8.117-3.318-1.374a.636.636 0 0 0-.487 0L8.388 8.117a.636.636 0 0 0-.344.344L6.67 11.778a.635.635 0 0 0 0 .487l1.374 3.318c.064.155.188.28.344.344l3.317 1.374c.156.064.331.064.487 0l3.317-1.374a.636.636 0 0 0 .344-.344l1.374-3.318a.635.635 0 0 0 0-.487l-1.374-3.317a.635.635 0 0 0-.344-.344Z"/></g><defs><clipPath id="a"><path fill="#fff" d="M0 0h24v24H0z"/></clipPath></defs></svg>