<svg xmlns="http://www.w3.org/2000/svg" width="24" height="24" fill="none"><g fill-rule="evenodd" clip-path="url(#a)" clip-rule="evenodd"><path fill="#EBF6F0" d="M23.955 11.97c0 6.595-5.346 11.94-11.94 11.94-6.595 0-11.94-5.345-11.94-11.94C.074 5.377 5.42.03 12.014.03c6.594 0 11.94 5.346 11.94 11.94Z"/><path fill="url(#b)" d="m6.785 7.085.903 9.458 3.546 5.126-.15-11.432-.001-.04-.105-7.914-4.193 4.802Z"/><path fill="#EBF6F0" d="M17.265 7.085v.001l-6.158 3.138-.026-.028-.104-7.913 6.288 4.802Z"/><path fill="#BBDBD6" d="m17.267 7.086-.264 9.484-5.894-6.346 6.158-3.138Z"/><path fill="#0A8C90" d="M17.001 16.57v.001l-.004.143-5.753 4.973-.011-.017-.151-11.432.026-.013L17 16.57Z"/><path fill="#4AA7AC" d="m11.108 10.224-.025.013-.001-.04.026.027Z"/><path fill="#fff" d="m7.829 16.483 3.444 4.977 5.58-4.824.002-.078.263-9.41-6.12-4.674-4.062 4.652.893 9.357Zm3.389 5.411-.105-.15-3.568-5.158-.004-.038-.908-9.52 4.324-4.953 6.456 4.93v.072l-.27 9.696-5.925 5.121Z"/><path fill="#2A2A2A" d="M11.344 2.283a.353.353 0 1 1-.707 0 .353.353 0 0 1 .707 0ZM7.137 7.098a.353.353 0 1 1-.707 0 .353.353 0 0 1 .707 0ZM8.05 16.543a.353.353 0 1 1-.706 0 .353.353 0 0 1 .707 0ZM11.66 21.658a.353.353 0 1 1-.707 0 .353.353 0 0 1 .707 0ZM17.316 16.624a.354.354 0 1 1-.707 0 .354.354 0 0 1 .707 0ZM17.598 7.098a.353.353 0 1 1-.707 0 .353.353 0 0 1 .707 0ZM11.46 10.225a.353.353 0 1 1-.706 0 .353.353 0 0 1 .707 0Z"/></g><defs><linearGradient id="b" x1="9.01" x2="9.01" y1="2.283" y2="21.669" gradientUnits="userSpaceOnUse"><stop stop-color="#6EBF9E"/><stop offset="1" stop-color="#3998AC"/></linearGradient><clipPath id="a"><path fill="#fff" d="M0 0h24v24H0z"/></clipPath></defs></svg>