<svg xmlns="http://www.w3.org/2000/svg" width="32" height="32" fill="none"><path fill="#fff" fill-rule="evenodd" d="M17.816 13.152a1 1 0 0 1 1.37.352L26.86 26.49a1 1 0 1 1-1.722 1.018L17.464 14.52a1 1 0 0 1 .352-1.37ZM12.491 4.14a1 1 0 0 1 1.37.351l3 5.075a1 1 0 1 1-1.722 1.018l-3-5.075a1 1 0 0 1 .352-1.37ZM7.698 24.14a1 1 0 0 1 .35 1.37l-1.188 2a1 1 0 1 1-1.72-1.02l1.188-2a1 1 0 0 1 1.37-.35Z" clip-rule="evenodd"/><path fill="#fff" fill-rule="evenodd" d="M19.509 4.139a1 1 0 0 1 .352 1.37l-9.45 16A1 1 0 0 1 8.69 20.49l9.45-16a1 1 0 0 1 1.37-.352ZM21.45 21a1 1 0 0 1 1-1H29a1 1 0 1 1 0 2h-6.55a1 1 0 0 1-1-1Z" clip-rule="evenodd"/><path fill="#fff" fill-rule="evenodd" d="M2 21a1 1 0 0 1 1-1h14.813a1 1 0 1 1 0 2H3a1 1 0 0 1-1-1Z" clip-rule="evenodd"/></svg>