<svg xmlns="http://www.w3.org/2000/svg" width="32" height="32" fill="none"><path fill="#fff" fill-rule="evenodd" d="M4.995 2.253a2 2 0 0 1 1.996.02l20.957 12.003a1.963 1.963 0 0 1 0 3.448L6.991 29.727a2 2 0 0 1-3.016-1.706V3.98a2 2 0 0 1 1.02-1.726ZM26.935 16 5.99 4.005l-.016-.009v24.008l.016-.01L26.935 16Z" clip-rule="evenodd"/><path fill="#fff" fill-rule="evenodd" d="M4.568 2.568a1 1 0 0 1 1.414 0L22.695 19.28a1 1 0 1 1-1.415 1.415L4.568 3.982a1 1 0 0 1 0-1.414Z" clip-rule="evenodd"/><path fill="#fff" fill-rule="evenodd" d="M22.695 11.305a1 1 0 0 1 0 1.415L5.982 29.432a1 1 0 0 1-1.414-1.414L21.28 11.305a1 1 0 0 1 1.415 0Z" clip-rule="evenodd"/></svg>