<svg viewBox="0 0 16 16" fill="none" xmlns="http://www.w3.org/2000/svg"><path
d="M12.953 12.945c.602-.604.979-1.127
1.34-1.865.24-.49.361-.806.493-1.304C14.958 9.123 15 8.775 15
8c0-.775-.042-1.123-.214-1.776a6.257 6.257 0 0 0-.493-1.304 6.511 6.511 0 0
0-1.34-1.865 6.49 6.49 0 0 0-1.866-1.34 6.783 6.783 0 0 0-2.029-.643 9.414 9.414
0 0 0-1.684-.054 7.11 7.11 0 0 0-3.7 1.474c-.53.408-1.23 1.188-1.629 1.814a9.43
9.43 0 0 0-.63 1.29c-.135.37-.28.931-.351 1.366-.085.535-.085 1.546 0
2.08.123.752.316 1.364.65 2.042.362.737.737 1.26 1.34 1.865a6.49 6.49 0 0 0
1.866 1.339c.679.333 1.29.527 2.042.649.535.085 1.547.085 2.082 0a6.936 6.936 0
0 0 2.043-.65 6.526 6.526 0 0 0 1.866-1.34Zm-4.949 1.098a5.928 5.928 0 0
1-4.273-1.774A5.923 5.923 0 0 1 1.956 8 5.92 5.92 0 0 1 3.73 3.73a6.052 6.052 0
0 1 3.573-1.743 8.911 8.911 0 0 1 1.366 0c1.364.149 2.61.752 3.607 1.744A5.922
5.922 0 0 1 14.052 8a5.919 5.919 0 0 1-1.775 4.27c-1.162 1.16-2.64 1.773-4.273
1.773Z" fill="#0F1115"/><path d="M7.543 4.632c-.023.085-.023.925-.02 1.819.01
1.63.012 1.714.06 1.807.042.084.401.365 1.142.925.61.463 1.156.869
1.222.908a.47.47 0 0 0
.567-.059c.12-.109.222-.32.11-.55-.05-.104-.195-.218-1.076-.88l-1.062-.794V6.23c0-.455
0-1.521-.027-1.613a.478.478 0 0 0-.666-.291.5.5 0 0 0-.25.306Z"
fill="#0F1115"/></svg>