<svg viewBox="0 0 16 16" fill="none" xmlns="http://www.w3.org/2000/svg"><path
d="M11.952 1.177c-.114-.557-.456-.986-.887-1.13-.203-.063-5.949-.063-6.152
0-.431.144-.76.573-.875 1.114-.05.255-.05 13.408 0 13.662.114.557.457.986.888
1.13.127.047.533.047 3.07.047 2.536 0 2.942 0
3.069-.048.43-.143.773-.572.887-1.129.064-.239.064-13.392
0-13.646Zm-5.086.064v-.16h2.27v.175h-2.27v-.015Zm-.799.81a.83.83 0 0 0
.127.176c.076.08.076.08 1.801.08 1.725 0 1.725 0
1.801-.08.038-.032.102-.128.14-.175.05-.096.063-.16.063-.573v-.397l.444.015c.533.016.533.016.647.207l.05.08v13.28l-.05.08a.565.565
0 0 1-.114.143c-.064.063-.165.063-2.968.063s-2.917 0-2.968-.063a.566.566 0 0
1-.114-.144l-.05-.079-.014-6.553c0-3.785 0-6.584.013-6.664a.466.466 0 0 1
.203-.302c.063-.032.292-.032.52-.048h.419v.414c-.013.382-.013.445.05.54Z"
fill="#0F1115"/></svg>