<svg viewBox="0 0 16 16" fill="none" xmlns="http://www.w3.org/2000/svg"><path
d="M13.95 4.849c-.204-1.255-.78-2.32-1.71-3.193A6.227 6.227 0 0 0
8.872.052C8.6.02 7.772-.012 7.552.004 6.027.147 4.775.687 3.76 1.656c-1.81
1.7-2.268 4.273-1.168 6.418.22.444 4.976 7.64 5.129 7.783a.544.544 0 0 0
.372.143h.034c.152-.016.305-.08.39-.207.151-.174 4.688-7.29
4.857-7.624.27-.508.457-1.033.575-1.636.068-.35.068-1.303 0-1.684Zm-1.152
1.684c-.101.429-.237.81-.423 1.16-.085.158-1.066 1.715-2.25 3.573l-2.049
3.21-2.133-3.226c-1.269-1.937-2.25-3.43-2.335-3.574A4.144 4.144 0 0 1 3.1
5.818c-.085-2.113 1.354-4.003 3.52-4.59a5.037 5.037 0 0 1 2.065-.144 5.127 5.127
0 0 1 2.776 1.303 4.637 4.637 0 0 1 1.354 2.367c.102.46.102 1.318-.017 1.779Z"
fill="#0F1115"/><path d="M8.753
2.88c-.355-.096-.965-.112-1.32-.048-1.151.206-2.082 1.032-2.387
2.096-.101.366-.101 1.065 0 1.43.237.794.83 1.477 1.608 1.843.474.222.762.286
1.337.286h.051c.559 0 .83-.064 1.303-.286a2.928 2.928 0 0 0
1.608-1.843c.102-.365.102-1.064 0-1.43a3.086 3.086 0 0 0-2.2-2.049Zm-.372
1c.304.064.66.238.914.46.254.223.406.43.524.731.068.175.085.255.085.556 0
.397-.034.525-.203.842-.237.445-.728.81-1.253.937-.575.128-1.167
0-1.624-.349-.474-.35-.728-.858-.728-1.398
0-.302.05-.492.203-.794.237-.46.745-.858
1.286-.985.102-.032.271-.032.44-.032.119 0 .254 0 .356.032Z"
fill="#0F1115"/></svg>