<svg viewBox="0 0 16 16" fill="none" xmlns="http://www.w3.org/2000/svg"><path
d="M14.968 3.973c-.09-.476-.508-.868-1.015-.952-.18-.028-11.754-.028-11.919
0-.493.098-.896.476-1 .952-.045.182-.045 7.865 0 8.047.09.476.507.868
1.015.952.105.014 3.032.028 5.944.028 2.913 0 5.84-.014
5.944-.028.508-.084.927-.476 1.016-.952.06-.182.06-7.865.015-8.047Zm-.896
4.03v3.513L10.323 7.99l1.897-1.777 1.852-1.735v3.527Zm-8.364-.027-3.778
3.54v-7.04l.03.015 1.956 1.805 1.792 1.68Zm-1.254 2.42c.97-.909 1.762-1.637
1.926-1.79.09.083.344.307.658.601.328.308.716.658.791.7.135.07.269.07.403.014.075-.028.508-.434.792-.686l.642-.602
3.749 3.513H2.602l1.852-1.75ZM7.68
8.592c-.21-.196-1.494-1.371-2.793-2.589l-2.3-2.141H13.4L8.023 8.899l-.343-.308Z"
fill="#0F1115"/></svg>