<svg viewBox="0 0 16 16" fill="none" xmlns="http://www.w3.org/2000/svg"><path
d="M13.543 10.742c-.986-.985-1.137-1.122-1.332-1.221a1.523 1.523 0 0
0-1.08-.138c-.355.096-.5.182-1.223.896l-.64.639-.273-.144C7.583 10.02 5.773 8.19
5.123
6.857l-.077-.147.58-.576c.253-.25.492-.512.717-.787.179-.25.274-.55.273-.857a1.329
1.329 0 0 0-.19-.754c-.099-.199-.25-.358-1.258-1.369C3.887 1.107 3.829 1.059
3.41.95a1.402 1.402 0 0 0-.727 0c-.461.128-.64.275-1.547 1.203C.45 2.866.274
3.077.14 3.53a3.13 3.13 0 0 0-.122.483c-.036.45-.018.901.051 1.346.24 1.315
1.041 3.038 2.085 4.496a16.236 16.236 0 0 0 4.93 4.592C8.793 15.465 10.35 16
11.531 16c.358.008.715-.053 1.05-.179.356-.13.586-.32 1.365-1.103.96-.995
1.082-1.177 1.082-1.781a1.427 1.427 0 0
0-.26-.88c-.076-.111-.694-.757-1.226-1.314Zm-.269
3.198c-.73.745-.797.803-1.002.908a1.842 1.842 0 0 1-.804.166 5.45 5.45 0 0
1-1.864-.409 15.053 15.053 0 0 1-5.528-3.901A14.742 14.742 0 0 1 1.815 7.4C.944
5.638.72 4.308 1.152 3.582a16.96 16.96 0 0 1 1.601-1.599.542.542 0 0 1 .545
0c.121.074.96.905 1.175 1.123.987.985 1.067 1.077 1.108 1.209.093.32 0 .466-.868
1.298-.698.671-.752.751-.727 1.078.023.209.088.411.192.594a9.813 9.813 0 0 0
1.986 2.59 9.95 9.95 0 0 0 2.47 1.858c.384.199.445.224.64.224a.642.642 0 0 0
.34-.07l.031-.02c.284-.233.554-.482.81-.744.603-.598.74-.707.837-.736.32-.096.377-.051
1.572 1.148 1.086 1.088 1.163 1.18 1.163 1.41 0 .23-.11.343-.769
1.011l.016-.016ZM15.958 6.764a8.688 8.688 0 0 0-2.325-4.313A8.71 8.71 0 0 0
9.341.077a2.733 2.733 0 0 0-.503-.076.5.5 0 0 0-.298.08.576.576 0 0
0-.163.22.342.342 0 0 0-.022.294c.073.247.198.32.599.413a7.722 7.722 0 0 1 3.955
2.133 7.703 7.703 0 0 1 2.095 3.972c.048.24.118.403.288.46a.474.474 0 0 0
.358.029.48.48 0 0 0 .285-.214c.08-.128.084-.227.023-.624ZM8.294 3.65a.608.608 0
0 0 .41.23 4.387 4.387 0 0 1 3.395 3.348c.057.345.23.527.486.527h.036a.443.443 0
0 0 .451-.32.482.482 0 0 0 .023-.204 4.366 4.366 0 0 0-.298-1.135 5.311 5.311 0
0 0-3.584-3.131 1.309 1.309 0 0 0-.666-.074.55.55 0 0 0-.33.365.434.434 0 0 0 0
.192.428.428 0 0 0 .077.201Z" fill="#0F1115"/></svg>