<svg viewBox="0 0 16 16" fill="none" xmlns="http://www.w3.org/2000/svg"><path
d="M15.962 7.032c-.143-1.113-.508-2.194-1.064-3.1a8.037 8.037 0 0
0-2.826-2.83A8.165 8.165 0 0 0 9.007.051 18.011 18.011 0 0 0
7.435.004l-.08.016c-.079.016-.206.032-.333.032-1.032.095-2.16.493-3.096
1.05A8.037 8.037 0 0 0 1.1 3.931c-.54.906-.905 1.987-1.064 3.1-.048.398-.048
1.558 0 1.94.254 1.94 1.111 3.61 2.572 4.961a7.623 7.623 0 0 0 2.89
1.685c.857.287 1.524.382 2.509.382.73 0 1.032-.032 1.667-.159 2.175-.445
4.08-1.813 5.24-3.768.54-.907.905-1.988
1.064-3.101.032-.382.032-1.558-.016-1.94ZM5.736 5.362c.27-.906.953-1.51
1.937-1.7.048 0 .096-.017.175-.017.238 0 .62.032.794.08a2.374 2.374 0 0 1 1.62
1.622c.11.35.11.874.015 1.224-.285 1.05-1.19 1.765-2.286
1.765s-2-.7-2.287-1.765c-.079-.334-.063-.859.032-1.208Zm-2.128 7.792a4.511 4.511
0 0 1 2.954-3.45c.683-.24 1.318-.303 2.08-.207.953.127 1.794.556 2.525
1.272.555.556.889 1.097 1.111
1.796.08.239.175.7.19.811-.015.016-.031.016-.047.032l-.143.112c-.953.747-2.096
1.208-3.382 1.399-.35.047-1.397.047-1.763
0-1.286-.191-2.429-.652-3.382-1.4l-.127-.095c-.016-.016-.047-.032-.047-.048
0-.031
0-.095.031-.222Zm6.4-4.389.015-.016c.207-.143.683-.651.794-.842.445-.7.636-1.447.556-2.226a3.377
3.377 0 0 0-1.826-2.688 3.355 3.355 0 0 0-3.176.032 3.457 3.457 0 0 0-1.778
2.672c-.064.62.063 1.272.333 1.828.223.461.604.906.969
1.193.032.031.063.047.095.08-.032.015-.08.03-.159.063-.841.334-1.699 1.017-2.286
1.796a5.483 5.483 0 0 0-.826 1.638c-.032.08-.047.16-.063.207a9.807 9.807 0 0
1-.493-.652 10.08 10.08 0 0 1-.682-1.304 7.026 7.026 0 0
1-.445-2.083c-.159-2.21.826-4.452 2.588-5.851A6.96 6.96 0 0 1 7.975 1.07c.206 0
.429.015.635.031 1.795.16 3.541 1.082 4.668 2.433 1.509 1.797 2.017 4.118 1.398
6.376a7.093 7.093 0 0 1-1.223
2.417c-.063.08-.111.143-.143.175-.016-.048-.047-.127-.063-.207-.27-.89-.89-1.844-1.604-2.48a5.873
5.873 0 0 0-1.62-1.002l-.015-.048Z" fill="#0F1115"/></svg>