<svg xmlns="http://www.w3.org/2000/svg" width="63" height="62" fill="none"><g clip-path="url(#a)"><path fill="#F8931A" d="M62.5 31c0-17.12-13.88-31-31-31C14.38 0 .5 13.88.5 31c0 17.12 13.88 31 31 31 17.12 0 31-13.88 31-31Z"/><path fill="#fff" fill-rule="evenodd" d="M31.5 17.938a8.312 8.312 0 1 0 0 16.624 8.312 8.312 0 0 0 0-16.624ZM20.812 26.25c0-5.902 4.785-10.688 10.688-10.688 5.903 0 10.688 4.786 10.688 10.688 0 5.903-4.785 10.688-10.688 10.688-5.902 0-10.688-4.785-10.688-10.688Z" clip-rule="evenodd"/><path fill="#fff" fill-rule="evenodd" d="M31.5 36.936a15.438 15.438 0 0 0-13.37 7.72 1.187 1.187 0 1 1-2.057-1.187 17.812 17.812 0 0 1 30.854 0 1.187 1.187 0 1 1-2.057 1.187 15.438 15.438 0 0 0-13.37-7.72Z" clip-rule="evenodd"/></g><defs><clipPath id="a"><path fill="#fff" d="M.5 0h62v62H.5z"/></clipPath></defs></svg>