<svg xmlns="http://www.w3.org/2000/svg" width="63" height="62" fill="none"><g clip-path="url(#a)"><path fill="#BD47FC" d="M62.5 31c0-17.12-13.88-31-31-31C14.38 0 .5 13.88.5 31c0 17.12 13.88 31 31 31 17.12 0 31-13.88 31-31Z"/><path fill="#fff" fill-rule="evenodd" d="M30.878 15.739a1.188 1.188 0 0 1 1.244 0l15.438 9.5a1.187 1.187 0 0 1-.623 2.198H16.064a1.187 1.187 0 0 1-.623-2.198l15.438-9.5Zm-10.62 9.323h22.484L31.5 18.145l-11.242 6.919Z" clip-rule="evenodd"/><path fill="#fff" fill-rule="evenodd" d="M20.813 25.063c.655 0 1.187.531 1.187 1.187v11.875a1.188 1.188 0 0 1-2.375 0V26.25c0-.656.532-1.188 1.188-1.188ZM27.938 25.063c.655 0 1.187.531 1.187 1.187v11.875a1.188 1.188 0 0 1-2.375 0V26.25c0-.656.532-1.188 1.188-1.188ZM35.063 25.063c.655 0 1.187.531 1.187 1.187v11.875a1.188 1.188 0 0 1-2.375 0V26.25c0-.656.532-1.188 1.188-1.188ZM42.188 25.063c.655 0 1.187.531 1.187 1.187v11.875a1.188 1.188 0 0 1-2.375 0V26.25c0-.656.532-1.188 1.188-1.188Z" clip-rule="evenodd"/><path fill="#fff" fill-rule="evenodd" d="M16.063 38.125c0-.656.531-1.188 1.187-1.188h28.5a1.188 1.188 0 0 1 0 2.376h-28.5a1.188 1.188 0 0 1-1.188-1.188ZM13.688 42.875c0-.656.531-1.188 1.187-1.188h33.25a1.188 1.188 0 0 1 0 2.376h-33.25a1.188 1.188 0 0 1-1.188-1.188Z" clip-rule="evenodd"/></g><defs><clipPath id="a"><path fill="#fff" d="M.5 0h62v62H.5z"/></clipPath></defs></svg>