<svg xmlns="http://www.w3.org/2000/svg" width="63" height="62" fill="none"><g clip-path="url(#a)"><path fill="#27C28A" d="M62.5 31c0-17.12-13.88-31-31-31C14.38 0 .5 13.88.5 31c0 17.12 13.88 31 31 31 17.12 0 31-13.88 31-31Z"/><path fill="#fff" fill-rule="evenodd" d="M20.813 20.313a1.188 1.188 0 0 0 0 2.375h23.75a2.375 2.375 0 0 1 2.374 2.375v16.625a2.375 2.375 0 0 1-2.374 2.374h-23.75A3.563 3.563 0 0 1 17.25 40.5v-19a3.563 3.563 0 0 1 3.563-3.563H41a1.188 1.188 0 0 1 0 2.375H20.812Zm-1.188 4.546V40.5a1.188 1.188 0 0 0 1.188 1.188h23.75V25.061h-23.75c-.409 0-.81-.07-1.188-.203Z" clip-rule="evenodd"/><path fill="#fff" d="M39.219 35.156a1.781 1.781 0 1 0 0-3.562 1.781 1.781 0 0 0 0 3.562Z"/></g><defs><clipPath id="a"><path fill="#fff" d="M.5 0h62v62H.5z"/></clipPath></defs></svg>