<svg xmlns="http://www.w3.org/2000/svg" width="63" height="62" fill="none"><g clip-path="url(#a)"><path fill="#F72357" d="M62.5 31c0-17.12-13.88-31-31-31C14.38 0 .5 13.88.5 31c0 17.12 13.88 31 31 31 17.12 0 31-13.88 31-31Z"/><path fill="#fff" fill-rule="evenodd" d="M17.25 17.938c.656 0 1.188.531 1.188 1.187v22.563H45.75a1.188 1.188 0 0 1 0 2.374h-28.5a1.188 1.188 0 0 1-1.188-1.187v-23.75c0-.656.532-1.188 1.188-1.188Z" clip-rule="evenodd"/><path fill="#fff" fill-rule="evenodd" d="M44.215 20.66a1.188 1.188 0 0 1 0 1.68L32.34 34.215a1.188 1.188 0 0 1-1.68 0l-3.91-3.91-8.66 8.66a1.188 1.188 0 0 1-1.68-1.68l9.5-9.5a1.188 1.188 0 0 1 1.68 0l3.91 3.91L42.535 20.66a1.188 1.188 0 0 1 1.68 0Z" clip-rule="evenodd"/><path fill="#fff" fill-rule="evenodd" d="M36.25 21.5c0-.656.532-1.188 1.188-1.188h5.937c.656 0 1.188.532 1.188 1.188v5.938a1.188 1.188 0 0 1-2.376 0v-4.75h-4.75A1.188 1.188 0 0 1 36.25 21.5Z" clip-rule="evenodd"/></g><defs><clipPath id="a"><path fill="#fff" d="M.5 0h62v62H.5z"/></clipPath></defs></svg>