<svg xmlns="http://www.w3.org/2000/svg" width="15" height="10" fill="none"><path fill="#06B470" fill-rule="evenodd" d="M14.843.163a.57.57 0 0 1 0 .785L8.415 7.615a.522.522 0 0 1-.758 0l-2.3-2.385L.915 9.837a.522.522 0 0 1-.758 0 .57.57 0 0 1 0-.785l4.821-5a.522.522 0 0 1 .758 0l2.3 2.385 6.05-6.274a.522.522 0 0 1 .757 0Z" clip-rule="evenodd"/><path fill="#06B470" fill-rule="evenodd" d="M9.643.556c0-.307.24-.556.536-.556h4.285c.296 0 .536.249.536.556V5c0 .307-.24.556-.536.556A.546.546 0 0 1 13.93 5V1.111h-3.75a.546.546 0 0 1-.536-.555Z" clip-rule="evenodd"/></svg>