<svg width="11" height="10" viewBox="0 0 11 10" fill="none" xmlns="http://www.w3.org/2000/svg">
<path fill-rule="evenodd" clip-rule="evenodd" d="M10.3373 0.162718C10.5542 0.379676 10.5542 0.731435 10.3373 0.948393L1.44839 9.83728C1.23143 10.0542 0.879676 10.0542 0.662718 9.83728C0.445761 9.62032 0.445761 9.26857 0.662718 9.05161L9.55161 0.162718C9.76857 -0.0542395 10.1203 -0.0542395 10.3373 0.162718Z" fill="white"/>
<path fill-rule="evenodd" clip-rule="evenodd" d="M2.16667 0.555556C2.16667 0.248731 2.4154 8.27842e-09 2.72222 8.27842e-09H9.94444C10.2513 8.27842e-09 10.5 0.248731 10.5 0.555556V7.77778C10.5 8.0846 10.2513 8.33333 9.94444 8.33333C9.63762 8.33333 9.38889 8.0846 9.38889 7.77778V1.11111H2.72222C2.4154 1.11111 2.16667 0.86238 2.16667 0.555556Z" fill="white"/>
</svg>
