<svg xmlns="http://www.w3.org/2000/svg" viewBox="0 0 16 16" fill="#0F1115"><path
fill="#000" d="M14.386 14.807c.09-.23 1.487-6.275 1.591-6.88a2.638 2.638 0 0
0-.05-.95c-.17-.633-.597-1.146-1.142-1.368-.146-.06-.215-.07-.936-.087l-.902-.018-.016-.255a6.596
6.596 0 0 0-.059-.504C12.54 2.347 10.901.466 8.792.064A5.598 5.598 0 0 0
7.486.02h-.001C5.268.296 3.478 2.24 3.129 4.743a6.92 6.92 0 0
0-.058.502l-.017.26-.901.017c-.722.016-.79.026-.936.087C.67 5.83.245 6.344.073
6.977c-.072.273-.095.69-.05.95.083.485 1.488 6.613 1.565
6.83.11.305.221.477.478.737.257.257.564.426.867.475C3.044 15.985 4.656 16 8
16c3.344 0 4.954-.016 5.067-.031.55-.088 1.08-.557 1.319-1.162ZM4.214
5.123c.05-.786.398-1.748.86-2.395C5.955 1.5 7.319.905 8.637 1.177c.895.185
1.709.735 2.29 1.551.462.647.807 1.61.86 2.395l.03.4h-7.63l.028-.4Zm8.84
9.666c-.14.085-.14.085-5.056.085s-4.914
0-5.052-.084c-.157-.1-.27-.276-.347-.541a308.01 308.01 0 0
1-.75-3.264c-.614-2.7-.71-3.15-.722-3.442-.013-.3-.008-.383.07-.55L1.2
6.99a.767.767 0 0 1 .22-.26l.002-.002c.133-.08.133-.08 6.587-.08 6.461 0
6.466.003 6.584.072.243.146.361.563.283.994-.06.325-1.414 6.309-1.478
6.533-.077.267-.188.442-.343.542Z"/><path fill="#fff" d="M4.101
8.66c-.011.063-.032.453-.024 2.335l.01 2.156.063.113a.57.57 0 0 0
.524.281.533.533 0 0 0
.471-.311c.046-.105.052-.367.052-2.342V8.664l-.07-.14a.541.541 0 0
0-.687-.27c-.15.05-.3.229-.339.406ZM8.31 8.386l-.024-.023a.52.52 0 0
0-.558-.113l-.003.002a.616.616 0 0 0-.196.128l-.005.005c-.17.165-.174.168-.164
2.58l.01 2.19.082.131c.1.162.267.257.456.262a.565.565 0 0 0
.478-.244l.079-.116.01-2.448c.008-2.198.004-2.202-.164-2.354ZM11.207
13.548c.19-.005.356-.1.456-.262l.082-.13.01-2.297c.01-2.317.006-2.32-.174-2.48l-.01-.01a.528.528
0 0 0-.59-.107h-.002a.634.634 0 0 0-.315.35c-.032.134-.025 1.69-.022 2.355l.01
2.223.08.116a.56.56 0 0 0 .475.242Z"/></svg>