<svg viewBox="0 0 16 16" fill="none" xmlns="http://www.w3.org/2000/svg"><path d="M8 0C3.584 0 0 3.584 0 8s3.584 8 8 8 8-3.584 8-8c-.048-4.4-3.632-8-8-8Zm6.928 8c-.032 3.808-3.152 6.912-6.944 6.912C4.16 14.912 1.04 11.808 1.04 8c0-3.824 3.12-6.944 6.944-6.944 3.84.016 6.944 3.12 6.944 6.944Z" fill="#0F1115"/><path d="M11.968 4.864a.545.545 0 0 0-.352.112L6.72 9.856 4.352 7.488a.551.551 0 0 0-.368-.16.463.463 0 0 0-.368.16.531.531 0 0 0 0 .752l2.736 2.736c.112.112.224.16.368.16a.551.551 0 0 0 .368-.16l5.216-5.216a.551.551 0 0 0 .16-.368.564.564 0 0 0-.144-.368c-.08-.096-.208-.144-.352-.16Z" fill="#0F1115"/></svg>