<svg viewBox="0 0 16 16" fill="none" xmlns="http://www.w3.org/2000/svg"><path
d="m9.006 8.055 6.739-6.758a.73.73 0 0 0 .207-.496.73.73 0 0 0-.207-.497.731.731
0 0 0-1.038 0L7.968 7.062 1.23.208A.738.738 0 0 0 .719 0a.738.738 0 0
0-.511.208A.73.73 0 0 0 0 .705a.73.73 0 0 0 .208.496l6.738 6.758-6.738
6.806A.73.73 0 0 0 0 15.26a.67.67 0 0 0
.208.48c.127.16.303.257.51.257.208.016.4-.064.543-.208L8 9.032l6.739
6.758a.734.734 0 0 0 .526.208.734.734 0 0 0 .527-.208.73.73 0 0 0
.208-.497.73.73 0 0 0-.208-.496L9.006 8.055Z" fill="#0F1115"/></svg>