<svg viewBox="0 0 16 16" fill="none" xmlns="http://www.w3.org/2000/svg"><path
d="M11.387 1A4.577 4.577 0 0 0 8 2.492 4.577 4.577 0 0 0 4.613 1C2.077 1 0 3.05
0 5.574c0 2.147 1.031 4.071 3.15 5.884.71.628 1.505 1.171 2.216
1.66l.306.209c.042.028.07.056.112.083.084.07.167.14.279.196.14.097.265.18.39.264.488.321.892.614
1.212.865l.321.265.335-.223.014-.014c.418-.32.933-.683
1.616-1.143l.028-.028a.784.784 0 0 1 .195-.14.616.616 0 0 0 .154-.111c.836-.558
1.714-1.158 2.522-1.883C14.202 10.273 16 8.376 16 5.546 16 3.05 13.937 1 11.387
1ZM4.613 2.088c1.213 0 2.286.571 2.941 1.561L8 4.375l.446-.712a3.488 3.488 0 0 1
2.955-1.575c1.937 0 3.526 1.561 3.526 3.486 0 1.84-.906 3.514-2.774
5.103-.64.558-1.338 1.032-2.007
1.492-.139.098-.264.182-.404.28-.07.041-.14.083-.195.125-.056.042-.111.07-.153.097l-.028.014-.376.251c-.349.237-.683.46-.976.684-.293-.21-.627-.433-.976-.684l-.376-.25-.028-.015c-.056-.028-.111-.07-.153-.097a2.378
2.378 0 0 0-.195-.126c-.837-.558-1.645-1.115-2.411-1.77C2.007 9.087 1.1 7.413
1.1 5.573c-.014-1.925 1.575-3.486 3.512-3.486Z" fill="#0F1115"/></svg>