<svg xmlns="http://www.w3.org/2000/svg" width="58" height="42" fill="none"><path fill="#fff" fill-opacity=".1" fill-rule="evenodd" d="M1.307 1.295A4.482 4.482 0 0 1 4.462 0h16.73c1.184 0 2.318.466 3.155 1.295a4.4 4.4 0 0 1 1.307 3.126v24.316c0 3.518-1.41 6.891-3.92 9.378A13.447 13.447 0 0 1 12.269 42a2.22 2.22 0 0 1-2.23-2.21c0-1.221.998-2.211 2.23-2.211a8.965 8.965 0 0 0 6.31-2.59 8.802 8.802 0 0 0 2.613-6.252v-2.21H4.462a4.482 4.482 0 0 1-3.155-1.296A4.4 4.4 0 0 1 0 22.105V4.421a4.4 4.4 0 0 1 1.307-3.126Zm19.885 20.81V4.421H4.462v17.684h16.73ZM33.653 1.295A4.482 4.482 0 0 1 36.808 0h16.73c1.184 0 2.319.466 3.155 1.295A4.4 4.4 0 0 1 58 4.42v24.316c0 3.518-1.41 6.891-3.92 9.378A13.447 13.447 0 0 1 44.615 42a2.22 2.22 0 0 1-2.23-2.21c0-1.221.998-2.211 2.23-2.211a8.965 8.965 0 0 0 6.31-2.59 8.802 8.802 0 0 0 2.614-6.252v-2.21H36.807a4.482 4.482 0 0 1-3.155-1.296 4.4 4.4 0 0 1-1.307-3.126V4.421a4.4 4.4 0 0 1 1.307-3.126Zm19.886 20.81V4.421H36.807v17.684h16.73Z" clip-rule="evenodd"/></svg>