<svg xmlns="http://www.w3.org/2000/svg" viewBox="0 0 52 52" fill="none"><path
fill="#86BF58" d="M50.513 7.109a1.96 1.96 0 0 0-2.771-.003L24.23
30.555l-8.483-9.213a1.96 1.96 0 0 0-2.883 2.654l9.864 10.713c.361.393.867.62
1.4.632h.042c.518 0 1.016-.205 1.383-.571L50.51 9.88a1.96 1.96 0 0 0
.004-2.771Z"/><path fill="#86BF58" d="M50.04 24.04A1.96 1.96 0 0 0 48.08 26c0
12.176-9.904 22.08-22.08 22.08-12.175 0-22.08-9.904-22.08-22.08C3.92 13.825
13.825 3.92 26 3.92A1.96 1.96 0 1 0 26 0C11.663 0 0 11.663 0 26c0 14.336 11.663
26 26 26 14.336 0 26-11.664 26-26a1.96 1.96 0 0 0-1.96-1.96Z"/></svg>