<svg viewBox="0 0 16 16" fill="none" xmlns="http://www.w3.org/2000/svg"><path
d="M15.97 6.283c-.077-.233-.295-.393-.59-.422l-5-.262-1.771-4.22A.622.622 0 0 0
8.019 1h-.016c-.28 0-.512.16-.606.407l-1.77 4.22-4.985.263c-.28
0-.513.16-.606.407-.093.248 0 .51.217.67l3.868 2.867-1.305 4.395a.561.561 0 0 0
.233.64.7.7 0 0 0 .404.131c.124 0 .248-.03.341-.102l4.194-2.488 4.224
2.459a.69.69 0 0 0 .745-.014.567.567 0 0 0 .233-.655l-1.304-4.41
3.883-2.867c.201-.16.279-.407.201-.64ZM5.38 9.63l.015-.03v-.16L2.008
6.924l4.21-.233h.186l1.584-3.754L9.572 6.69h.186l4.225.204-3.386 2.518v.16L11.7
13.37l-3.62-2.154h-.17L4.291 13.37 5.38 9.63Z" fill="#0F1115"/></svg>